# xmcd
#
# Track frame offsets:
# 150
# 14352
# 25782
# 41724
# 56144
# 67496
# 82376
# 94527
# 106836
# 117454
# 126521
# 144259
# 160134
# 178074
# 190461
# 203289
# 216261
# 230321
# 245946
# 259267
#
# Disc length: 3652 seconds
#
# Revision: 3
# Processed by: cddbd v1.5.2PL0 Copyright (c) Steve Scherf et al.
# Submitted via: Axialis_AX_CDPlayer 2.6
#
DISCID=2f0e4214
DTITLE=Crystal Gayle - Hollywood Tennessee and True Love
DYEAR=1900
DGENRE=
TTITLE0=Keepin' Power
TTITLE1=The Woman In Me
TTITLE2=Ain't No Sunshine
TTITLE3=You Never Gave Up On Me
TTITLE4=Hollywood
TTITLE5=Livin' In These Troubled Times
TTITLE6=Love, Crazy Love
TTITLE7=Lean On Me
TTITLE8=Crying In The Rain
TTITLE9=Tennessee
TTITLE10=Our Love Is On The Faultline
TTITLE11=Deeper In The Fire
TTITLE12='Til I Gain Control Again
TTITLE13=Baby What About You
TTITLE14=You Bring Out The Lover In Me
TTITLE15=True Love
TTITLE16=Everything I Own
TTITLE17=Let Your Feelings Show
TTITLE18=Easier Said Than Done
TTITLE19=He Is Beautiful To Me
EXTD=
EXTT0=
EXTT1=
EXTT2=
EXTT3=
EXTT4=
EXTT5=
EXTT6=
EXTT7=
EXTT8=
EXTT9=
EXTT10=
EXTT11=
EXTT12=
EXTT13=
EXTT14=
EXTT15=
EXTT16=
EXTT17=
EXTT18=
EXTT19=
PLAYORDER=
